{
  "accessors": [
    {
      "bufferView": 2,
      "componentType": 5126,
      "count": 3046,
      "max": [
        0.03455067798495293,
        0.08876653015613556,
        0.14825516939163208
      ],
      "min": [
        -0.03929181769490242,
        -0.10924488306045532,
        0.01485477201640606
      ],
      "type": "VEC3"
    },
    {
      "bufferView": 2,
      "byteOffset": 36552,
      "componentType": 5126,
      "count": 3046,
      "max": [
        0.9993411302566528,
        0.9999062418937683,
        0.9998885989189148
      ],
      "min": [
        -0.999018669128418,
        -0.9999122619628906,
        -0.9998857975006104
      ],
      "type": "VEC3"
    },
    {
      "bufferView": 1,
      "componentType": 5126,
      "count": 3046,
      "max": [
        1.0382251739501953,
        0.9677364230155945
      ],
      "min": [
        -0.03634790703654289,
        0.0
      ],
      "type": "VEC2"
    },
    {
      "bufferView": 1,
      "byteOffset": 24368,
      "componentType": 5126,
      "count": 3046,
      "max": [
        0.5938607454299927,
        0.5949232578277588
      ],
      "min": [
        0.0,
        0.0
      ],
      "type": "VEC2"
    },
    {
      "bufferView": 0,
      "componentType": 5125,
      "count": 16128,
      "type": "SCALAR"
    },
    {
      "bufferView": 2,
      "byteOffset": 73104,
      "componentType": 5126,
      "count": 808,
      "max": [
        0.027712732553482056,
        0.08783615380525589,
        0.08739253133535385
      ],
      "min": [
        -0.03253798186779022,
        -0.10873560607433319,
        0.0010140566155314445
      ],
      "type": "VEC3"
    },
    {
      "bufferView": 2,
      "byteOffset": 82800,
      "componentType": 5126,
      "count": 808,
      "max": [
        0.9999963045120239,
        0.989111602306366,
        0.9998857975006104
      ],
      "min": [
        -0.9992009997367859,
        -1.0,
        -1.0
      ],
      "type": "VEC3"
    },
    {
      "bufferView": 1,
      "byteOffset": 48736,
      "componentType": 5126,
      "count": 808,
      "max": [
        1.005462884902954,
        0.9683083295822144
      ],
      "min": [
        -0.005380944814532995,
        -0.003903012489899993
      ],
      "type": "VEC2"
    },
    {
      "bufferView": 1,
      "byteOffset": 55200,
      "componentType": 5126,
      "count": 808,
      "max": [
        0.0,
        0.0
      ],
      "min": [
        0.0,
        0.0
      ],
      "type": "VEC2"
    },
    {
      "bufferView": 0,
      "byteOffset": 64512,
      "componentType": 5125,
      "count": 4656,
      "type": "SCALAR"
    },
    {
      "bufferView": 2,
      "byteOffset": 92496,
      "componentType": 5126,
      "count": 720,
      "max": [
        0.027491716668009758,
        0.06483718007802963,
        0.07177640497684479
      ],
      "min": [
        -0.03224394842982292,
        -0.107200026512146,
        -0.0002154288813471794
      ],
      "type": "VEC3"
    },
    {
      "bufferView": 2,
      "byteOffset": 101136,
      "componentType": 5126,
      "count": 720,
      "max": [
        0.9999955296516418,
        0.9999998807907104,
        1.0
      ],
      "min": [
        -0.9999832510948181,
        -1.0,
        -1.0
      ],
      "type": "VEC3"
    },
    {
      "bufferView": 1,
      "byteOffset": 61664,
      "componentType": 5126,
      "count": 720,
      "max": [
        1.0002909898757935,
        0.9677363634109497
      ],
      "min": [
        -0.0001557862851768732,
        -0.003903012489899993
      ],
      "type": "VEC2"
    },
    {
      "bufferView": 1,
      "byteOffset": 67424,
      "componentType": 5126,
      "count": 720,
      "max": [
        0.0,
        0.0
      ],
      "min": [
        0.0,
        0.0
      ],
      "type": "VEC2"
    },
    {
      "bufferView": 0,
      "byteOffset": 83136,
      "componentType": 5125,
      "count": 4080,
      "type": "SCALAR"
    },
    {
      "bufferView": 2,
      "byteOffset": 109776,
      "componentType": 5126,
      "count": 602,
      "max": [
        0.03379390388727188,
        -0.00115305557847023,
        0.09348246455192566
      ],
      "min": [
        0.02607104554772377,
        -0.02824900858104229,
        0.06349027156829834
      ],
      "type": "VEC3"
    },
    {
      "bufferView": 2,
      "byteOffset": 117000,
      "componentType": 5126,
      "count": 602,
      "max": [
        0.9971411824226379,
        0.9822882413864136,
        0.9918744564056396
      ],
      "min": [
        -0.9932783842086792,
        -0.9783316254615784,
        -0.9765138030052185
      ],
      "type": "VEC3"
    },
    {
      "bufferView": 1,
      "byteOffset": 73184,
      "componentType": 5126,
      "count": 602,
      "max": [
        0.0,
        0.0
      ],
      "min": [
        0.0,
        0.0
      ],
      "type": "VEC2"
    },
    {
      "bufferView": 1,
      "byteOffset": 78000,
      "componentType": 5126,
      "count": 602,
      "max": [
        0.0,
        0.0
      ],
      "min": [
        0.0,
        0.0
      ],
      "type": "VEC2"
    },
    {
      "bufferView": 0,
      "byteOffset": 99456,
      "componentType": 5125,
      "count": 3600,
      "type": "SCALAR"
    }
  ],
  "asset": {
    "extras": {
      "author": "hiirusama (https://sketchfab.com/hiirusama)",
      "license": "CC-BY-SA-4.0 (http://creativecommons.org/licenses/by-sa/4.0/)",
      "source": "https://sketchfab.com/3d-models/mary-jane-heels-e2bf5e0e470f4528b7cced2a9c4a2e4e",
      "title": "Mary Jane Heels"
    },
    "generator": "Sketchfab-15.34.0",
    "version": "2.0"
  },
  "bufferViews": [
    {
      "buffer": 0,
      "byteLength": 113856,
      "name": "floatBufferViews",
      "target": 34963
    },
    {
      "buffer": 0,
      "byteLength": 82816,
      "byteOffset": 113856,
      "byteStride": 8,
      "name": "floatBufferViews",
      "target": 34962
    },
    {
      "buffer": 0,
      "byteLength": 124224,
      "byteOffset": 196672,
      "byteStride": 12,
      "name": "floatBufferViews",
      "target": 34962
    }
  ],
  "buffers": [
    {
      "byteLength": 320896,
      "uri": "scene.bin"
    }
  ],
  "extensionsUsed": [
    "KHR_materials_specular"
  ],
  "materials": [
    {
      "doubleSided": true,
      "name": "black_shiny",
      "pbrMetallicRoughness": {
        "baseColorFactor": [
          0.0037031,
          0.0037031,
          0.0037031,
          1.0
        ],
        "metallicFactor": 0.0,
        "roughnessFactor": 0.1306535194595037
      }
    },
    {
      "doubleSided": true,
      "name": "plateau_heel",
      "pbrMetallicRoughness": {
        "baseColorFactor": [
          0.318547,
          0.0,
          0.00556773,
          1.0
        ],
        "metallicFactor": 0.0,
        "roughnessFactor": 0.9847667684991016
      }
    },
    {
      "doubleSided": true,
      "name": "outsole",
      "pbrMetallicRoughness": {
        "baseColorFactor": [
          0.00856812,
          0.00856812,
          0.00856813,
          1.0
        ],
        "metallicFactor": 0.0,
        "roughnessFactor": 0.9975227344794465
      }
    },
    {
      "doubleSided": true,
      "extensions": {
        "KHR_materials_specular": {
          "specularColorFactor": [
            1.0,
            1.0,
            1.0
          ],
          "specularFactor": 0.2943639534810505
        }
      },
      "name": "gold",
      "pbrMetallicRoughness": {
        "baseColorFactor": [
          0.538223,
          0.510712,
          0.123374,
          1.0
        ],
        "roughnessFactor": 0.10746330682483618
      }
    }
  ],
  "meshes": [
    {
      "name": "Outer.001_black_shiny_0",
      "primitives": [
        {
          "attributes": {
            "NORMAL": 1,
            "POSITION": 0,
            "TEXCOORD_0": 2,
            "TEXCOORD_1": 3
          },
          "indices": 4,
          "material": 0,
          "mode": 4
        }
      ]
    },
    {
      "name": "Outer.001_plateau_heel_0",
      "primitives": [
        {
          "attributes": {
            "NORMAL": 6,
            "POSITION": 5,
            "TEXCOORD_0": 7,
            "TEXCOORD_1": 8
          },
          "indices": 9,
          "material": 1,
          "mode": 4
        }
      ]
    },
    {
      "name": "Outer.001_outsole_0",
      "primitives": [
        {
          "attributes": {
            "NORMAL": 11,
            "POSITION": 10,
            "TEXCOORD_0": 12,
            "TEXCOORD_1": 13
          },
          "indices": 14,
          "material": 2,
          "mode": 4
        }
      ]
    },
    {
      "name": "Outer.001_gold_0",
      "primitives": [
        {
          "attributes": {
            "NORMAL": 16,
            "POSITION": 15,
            "TEXCOORD_0": 17,
            "TEXCOORD_1": 18
          },
          "indices": 19,
          "material": 3,
          "mode": 4
        }
      ]
    }
  ],
  "nodes": [
    {
      "children": [
        1
      ],
      "matrix": [
        1.0,
        0.0,
        0.0,
        0.0,
        0.0,
        2.220446049250313e-16,
        -1.0,
        0.0,
        0.0,
        1.0,
        2.220446049250313e-16,
        0.0,
        0.0,
        0.0,
        0.0,
        1.0
      ],
      "name": "Sketchfab_model"
    },
    {
      "children": [
        2
      ],
      "matrix": [
        0.009999999776482582,
        0.0,
        0.0,
        0.0,
        0.0,
        0.0,
        0.009999999776482582,
        0.0,
        0.0,
        -0.009999999776482582,
        0.0,
        0.0,
        0.0,
        0.0,
        0.0,
        1.0
      ],
      "name": "e428c36ee0db4080aa8364e3d6b52c18.fbx"
    },
    {
      "children": [
        3
      ],
      "name": "RootNode"
    },
    {
      "children": [
        4,
        5,
        6,
        7
      ],
      "matrix": [
        100.0,
        0.0,
        0.0,
        0.0,
        0.0,
        -1.629206793918314e-05,
        -99.99999999999868,
        0.0,
        0.0,
        99.99999999999868,
        -1.629206793918314e-05,
        0.0,
        10.672426223754883,
        0.0,
        0.0,
        1.0
      ],
      "name": "Outer.001"
    },
    {
      "mesh": 0,
      "name": "Outer.001_black_shiny_0"
    },
    {
      "mesh": 1,
      "name": "Outer.001_plateau_heel_0"
    },
    {
      "mesh": 2,
      "name": "Outer.001_outsole_0"
    },
    {
      "mesh": 3,
      "name": "Outer.001_gold_0"
    }
  ],
  "scene": 0,
  "scenes": [
    {
      "name": "Sketchfab_Scene",
      "nodes": [
        0
      ]
    }
  ]
}
